<?xml version="1.0" ?><svg enable-background="new 0 0 224 224" id="windows" version="1.1" viewBox="0 0 224 224" xml:space="preserve" xmlns="http://www.w3.org/2000/svg" xmlns:xlink="http://www.w3.org/1999/xlink"><g><path d="M20,8h-4V4c0-2.2109-1.7891-4-4-4S8,1.7891,8,4v4H4c-2.2109,0-4,1.7891-4,4s1.7891,4,4,4h4v4   c0,2.2109,1.7891,4,4,4s4-1.7891,4-4v-4h4c2.2109,0,4-1.7891,4-4S22.2109,8,20,8z" fill="#FAE6F5"/><path d="M60,8h-4V4c0-2.2109-1.7891-4-4-4s-4,1.7891-4,4v4h-4c-2.2109,0-4,1.7891-4,4s1.7891,4,4,4h4v4   c0,2.2109,1.7891,4,4,4s4-1.7891,4-4v-4h4c2.2109,0,4-1.7891,4-4S62.2109,8,60,8z" fill="#FAE6F5"/><path d="M100,8h-4V4c0-2.2109-1.7891-4-4-4s-4,1.7891-4,4v4h-4c-2.2109,0-4,1.7891-4,4s1.7891,4,4,4h4v4   c0,2.2109,1.7891,4,4,4s4-1.7891,4-4v-4h4c2.2109,0,4-1.7891,4-4S102.2109,8,100,8z" fill="#FAE6F5"/><path d="M140,8h-4V4c0-2.2109-1.7891-4-4-4s-4,1.7891-4,4v4h-4c-2.2109,0-4,1.7891-4,4s1.7891,4,4,4h4v4   c0,2.2109,1.7891,4,4,4s4-1.7891,4-4v-4h4c2.2109,0,4-1.7891,4-4S142.2109,8,140,8z" fill="#FAE6F5"/><path d="M180,8h-4V4c0-2.2109-1.7891-4-4-4s-4,1.7891-4,4v4h-4c-2.2109,0-4,1.7891-4,4s1.7891,4,4,4h4v4   c0,2.2109,1.7891,4,4,4s4-1.7891,4-4v-4h4c2.2109,0,4-1.7891,4-4S182.2109,8,180,8z" fill="#FAE6F5"/><path d="M204,16h4v4c0,2.2109,1.7891,4,4,4s4-1.7891,4-4v-4h4c2.2109,0,4-1.7891,4-4s-1.7891-4-4-4h-4V4   c0-2.2109-1.7891-4-4-4s-4,1.7891-4,4v4h-4c-2.2109,0-4,1.7891-4,4S201.7891,16,204,16z" fill="#FAE6F5"/><path d="M20,48h-4v-4c0-2.2109-1.7891-4-4-4s-4,1.7891-4,4v4H4c-2.2109,0-4,1.7891-4,4s1.7891,4,4,4h4v4   c0,2.2109,1.7891,4,4,4s4-1.7891,4-4v-4h4c2.2109,0,4-1.7891,4-4S22.2109,48,20,48z" fill="#FAE6F5"/><path d="M60,48h-4v-4c0-2.2109-1.7891-4-4-4s-4,1.7891-4,4v4h-4c-2.2109,0-4,1.7891-4,4s1.7891,4,4,4h4v4   c0,2.2109,1.7891,4,4,4s4-1.7891,4-4v-4h4c2.2109,0,4-1.7891,4-4S62.2109,48,60,48z" fill="#FAE6F5"/><path d="M100,48h-4v-4c0-2.2109-1.7891-4-4-4s-4,1.7891-4,4v4h-4c-2.2109,0-4,1.7891-4,4s1.7891,4,4,4h4v4   c0,2.2109,1.7891,4,4,4s4-1.7891,4-4v-4h4c2.2109,0,4-1.7891,4-4S102.2109,48,100,48z" fill="#FAE6F5"/><path d="M140,48h-4v-4c0-2.2109-1.7891-4-4-4s-4,1.7891-4,4v4h-4c-2.2109,0-4,1.7891-4,4s1.7891,4,4,4h4v4   c0,2.2109,1.7891,4,4,4s4-1.7891,4-4v-4h4c2.2109,0,4-1.7891,4-4S142.2109,48,140,48z" fill="#FAE6F5"/><path d="M180,48h-4v-4c0-2.2109-1.7891-4-4-4s-4,1.7891-4,4v4h-4c-2.2109,0-4,1.7891-4,4s1.7891,4,4,4h4v4   c0,2.2109,1.7891,4,4,4s4-1.7891,4-4v-4h4c2.2109,0,4-1.7891,4-4S182.2109,48,180,48z" fill="#FAE6F5"/><path d="M220,48h-4v-4c0-2.2109-1.7891-4-4-4s-4,1.7891-4,4v4h-4c-2.2109,0-4,1.7891-4,4s1.7891,4,4,4h4v4   c0,2.2109,1.7891,4,4,4s4-1.7891,4-4v-4h4c2.2109,0,4-1.7891,4-4S222.2109,48,220,48z" fill="#FAE6F5"/><path d="M20,88h-4v-4c0-2.2109-1.7891-4-4-4s-4,1.7891-4,4v4H4c-2.2109,0-4,1.7891-4,4s1.7891,4,4,4h4v4   c0,2.2109,1.7891,4,4,4s4-1.7891,4-4v-4h4c2.2109,0,4-1.7891,4-4S22.2109,88,20,88z" fill="#FAE6F5"/><path d="M60,88h-4v-4c0-2.2109-1.7891-4-4-4s-4,1.7891-4,4v4h-4c-2.2109,0-4,1.7891-4,4s1.7891,4,4,4h4v4   c0,2.2109,1.7891,4,4,4s4-1.7891,4-4v-4h4c2.2109,0,4-1.7891,4-4S62.2109,88,60,88z" fill="#FAE6F5"/><path d="M100,88h-4v-4c0-2.2109-1.7891-4-4-4s-4,1.7891-4,4v4h-4c-2.2109,0-4,1.7891-4,4s1.7891,4,4,4h4v4   c0,2.2109,1.7891,4,4,4s4-1.7891,4-4v-4h4c2.2109,0,4-1.7891,4-4S102.2109,88,100,88z" fill="#FAE6F5"/><path d="M140,88h-4v-4c0-2.2109-1.7891-4-4-4s-4,1.7891-4,4v4h-4c-2.2109,0-4,1.7891-4,4s1.7891,4,4,4h4v4   c0,2.2109,1.7891,4,4,4s4-1.7891,4-4v-4h4c2.2109,0,4-1.7891,4-4S142.2109,88,140,88z" fill="#FAE6F5"/><path d="M180,88h-4v-4c0-2.2109-1.7891-4-4-4s-4,1.7891-4,4v4h-4c-2.2109,0-4,1.7891-4,4s1.7891,4,4,4h4v4   c0,2.2109,1.7891,4,4,4s4-1.7891,4-4v-4h4c2.2109,0,4-1.7891,4-4S182.2109,88,180,88z" fill="#FAE6F5"/><path d="M220,88h-4v-4c0-2.2109-1.7891-4-4-4s-4,1.7891-4,4v4h-4c-2.2109,0-4,1.7891-4,4s1.7891,4,4,4h4v4   c0,2.2109,1.7891,4,4,4s4-1.7891,4-4v-4h4c2.2109,0,4-1.7891,4-4S222.2109,88,220,88z" fill="#FAE6F5"/><path d="M20,128h-4v-4c0-2.2109-1.7891-4-4-4s-4,1.7891-4,4v4H4c-2.2109,0-4,1.7891-4,4s1.7891,4,4,4h4v4   c0,2.2109,1.7891,4,4,4s4-1.7891,4-4v-4h4c2.2109,0,4-1.7891,4-4S22.2109,128,20,128z" fill="#FAE6F5"/><path d="M60,128h-4v-4c0-2.2109-1.7891-4-4-4s-4,1.7891-4,4v4h-4c-2.2109,0-4,1.7891-4,4s1.7891,4,4,4h4v4   c0,2.2109,1.7891,4,4,4s4-1.7891,4-4v-4h4c2.2109,0,4-1.7891,4-4S62.2109,128,60,128z" fill="#FAE6F5"/><path d="M100,128h-4v-4c0-2.2109-1.7891-4-4-4s-4,1.7891-4,4v4h-4c-2.2109,0-4,1.7891-4,4s1.7891,4,4,4h4v4   c0,2.2109,1.7891,4,4,4s4-1.7891,4-4v-4h4c2.2109,0,4-1.7891,4-4S102.2109,128,100,128z" fill="#FAE6F5"/><path d="M140,128h-4v-4c0-2.2109-1.7891-4-4-4s-4,1.7891-4,4v4h-4c-2.2109,0-4,1.7891-4,4s1.7891,4,4,4h4v4   c0,2.2109,1.7891,4,4,4s4-1.7891,4-4v-4h4c2.2109,0,4-1.7891,4-4S142.2109,128,140,128z" fill="#FAE6F5"/><path d="M180,128h-4v-4c0-2.2109-1.7891-4-4-4s-4,1.7891-4,4v4h-4c-2.2109,0-4,1.7891-4,4s1.7891,4,4,4h4v4   c0,2.2109,1.7891,4,4,4s4-1.7891,4-4v-4h4c2.2109,0,4-1.7891,4-4S182.2109,128,180,128z" fill="#FAE6F5"/><path d="M220,128h-4v-4c0-2.2109-1.7891-4-4-4s-4,1.7891-4,4v4h-4c-2.2109,0-4,1.7891-4,4s1.7891,4,4,4h4v4   c0,2.2109,1.7891,4,4,4s4-1.7891,4-4v-4h4c2.2109,0,4-1.7891,4-4S222.2109,128,220,128z" fill="#FAE6F5"/><path d="M20,168h-4v-4c0-2.2109-1.7891-4-4-4s-4,1.7891-4,4v4H4c-2.2109,0-4,1.7891-4,4s1.7891,4,4,4h4v4   c0,2.2109,1.7891,4,4,4s4-1.7891,4-4v-4h4c2.2109,0,4-1.7891,4-4S22.2109,168,20,168z" fill="#FAE6F5"/><path d="M60,168h-4v-4c0-2.2109-1.7891-4-4-4s-4,1.7891-4,4v4h-4c-2.2109,0-4,1.7891-4,4s1.7891,4,4,4h4v4   c0,2.2109,1.7891,4,4,4s4-1.7891,4-4v-4h4c2.2109,0,4-1.7891,4-4S62.2109,168,60,168z" fill="#FAE6F5"/><path d="M100,168h-4v-4c0-2.2109-1.7891-4-4-4s-4,1.7891-4,4v4h-4c-2.2109,0-4,1.7891-4,4s1.7891,4,4,4h4v4   c0,2.2109,1.7891,4,4,4s4-1.7891,4-4v-4h4c2.2109,0,4-1.7891,4-4S102.2109,168,100,168z" fill="#FAE6F5"/><path d="M140,168h-4v-4c0-2.2109-1.7891-4-4-4s-4,1.7891-4,4v4h-4c-2.2109,0-4,1.7891-4,4s1.7891,4,4,4h4v4   c0,2.2109,1.7891,4,4,4s4-1.7891,4-4v-4h4c2.2109,0,4-1.7891,4-4S142.2109,168,140,168z" fill="#FAE6F5"/><path d="M180,168h-4v-4c0-2.2109-1.7891-4-4-4s-4,1.7891-4,4v4h-4c-2.2109,0-4,1.7891-4,4s1.7891,4,4,4h4v4   c0,2.2109,1.7891,4,4,4s4-1.7891,4-4v-4h4c2.2109,0,4-1.7891,4-4S182.2109,168,180,168z" fill="#FAE6F5"/><path d="M220,168h-4v-4c0-2.2109-1.7891-4-4-4s-4,1.7891-4,4v4h-4c-2.2109,0-4,1.7891-4,4s1.7891,4,4,4h4v4   c0,2.2109,1.7891,4,4,4s4-1.7891,4-4v-4h4c2.2109,0,4-1.7891,4-4S222.2109,168,220,168z" fill="#FAE6F5"/><path d="M20,208h-4v-4c0-2.2109-1.7891-4-4-4s-4,1.7891-4,4v4H4c-2.2109,0-4,1.7891-4,4s1.7891,4,4,4h4v4   c0,2.2109,1.7891,4,4,4s4-1.7891,4-4v-4h4c2.2109,0,4-1.7891,4-4S22.2109,208,20,208z" fill="#FAE6F5"/><path d="M60,208h-4v-4c0-2.2109-1.7891-4-4-4s-4,1.7891-4,4v4h-4c-2.2109,0-4,1.7891-4,4s1.7891,4,4,4h4v4   c0,2.2109,1.7891,4,4,4s4-1.7891,4-4v-4h4c2.2109,0,4-1.7891,4-4S62.2109,208,60,208z" fill="#FAE6F5"/><path d="M100,208h-4v-4c0-2.2109-1.7891-4-4-4s-4,1.7891-4,4v4h-4c-2.2109,0-4,1.7891-4,4s1.7891,4,4,4h4v4   c0,2.2109,1.7891,4,4,4s4-1.7891,4-4v-4h4c2.2109,0,4-1.7891,4-4S102.2109,208,100,208z" fill="#FAE6F5"/><path d="M140,208h-4v-4c0-2.2109-1.7891-4-4-4s-4,1.7891-4,4v4h-4c-2.2109,0-4,1.7891-4,4s1.7891,4,4,4h4v4   c0,2.2109,1.7891,4,4,4s4-1.7891,4-4v-4h4c2.2109,0,4-1.7891,4-4S142.2109,208,140,208z" fill="#FAE6F5"/><path d="M180,208h-4v-4c0-2.2109-1.7891-4-4-4s-4,1.7891-4,4v4h-4c-2.2109,0-4,1.7891-4,4s1.7891,4,4,4h4v4   c0,2.2109,1.7891,4,4,4s4-1.7891,4-4v-4h4c2.2109,0,4-1.7891,4-4S182.2109,208,180,208z" fill="#FAE6F5"/><path d="M220,208h-4v-4c0-2.2109-1.7891-4-4-4s-4,1.7891-4,4v4h-4c-2.2109,0-4,1.7891-4,4s1.7891,4,4,4h4v4   c0,2.2109,1.7891,4,4,4s4-1.7891,4-4v-4h4c2.2109,0,4-1.7891,4-4S222.2109,208,220,208z" fill="#FAE6F5"/></g><g><path d="M105.8241,14.5h-84c-2.2109,0-4,1.7891-4,4v84c0,2.2109,1.7891,4,4,4h84c2.2109,0,4-1.7891,4-4v-84   C109.8241,16.2891,108.035,14.5,105.8241,14.5z" fill="#643458"/><rect fill="#ED5175" height="76" width="76" x="25.8241" y="22.5"/><path d="M105.8241,114.5h-84c-2.2109,0-4,1.7891-4,4v84c0,2.2109,1.7891,4,4,4h84c2.2109,0,4-1.7891,4-4v-84   C109.8241,116.2891,108.035,114.5,105.8241,114.5z" fill="#643458"/><rect fill="#FDCA8D" height="76" width="76" x="25.8241" y="122.5"/><path d="M205.8241,114.5h-84c-2.2109,0-4,1.7891-4,4v84c0,2.2109,1.7891,4,4,4h84c2.2109,0,4-1.7891,4-4v-84   C209.8241,116.2891,208.035,114.5,205.8241,114.5z" fill="#643458"/><rect fill="#ED5175" height="76" width="76" x="125.8241" y="122.5"/><path d="M205.8241,14.5h-84c-2.2109,0-4,1.7891-4,4v84c0,2.2109,1.7891,4,4,4h84c2.2109,0,4-1.7891,4-4v-84   C209.8241,16.2891,208.035,14.5,205.8241,14.5z" fill="#643458"/><rect fill="#FDCA8D" height="76" width="76" x="125.8241" y="22.5"/></g></svg>